<svg xmlns="http://www.w3.org/2000/svg" height="40" viewBox="0 -960 960 960" width="40"><path d="M391.744-297.846H568.41v-284.616H391.744v33.847h142.82v91.538h-102.82v33.846h102.82v91.539h-142.82v33.846Zm-16.359-568.308V-900h209.23v33.846h-209.23Zm104.615 746q-65.948 0-124.32-25.295-58.372-25.294-101.988-68.653-43.615-43.359-68.654-101.988Q160-374.719 160-440.41t25.038-124.064q25.039-58.372 68.654-101.988 43.616-43.615 101.988-68.654 58.372-25.038 124.32-25.038 59.949 0 114.821 21.41 54.871 21.41 99.128 60.231l41.897-42.41 24.103 24.102-42.41 42.411q37.692 41.794 60.077 96.102Q800-504 800-440.154q0 65.435-25.038 124.064-25.039 58.629-68.654 101.988-43.616 43.359-101.988 68.653-58.372 25.295-124.32 25.295ZM479.927-154q118.996 0 202.612-83.543 83.615-83.543 83.615-202.538 0-118.996-83.543-202.612-83.543-83.615-202.538-83.615-118.996 0-202.612 83.543-83.615 83.543-83.615 202.539 0 118.995 83.543 202.611Q360.932-154 479.927-154ZM480-440Z"/></svg>