<svg xmlns="http://www.w3.org/2000/svg" height="40" viewBox="0 -960 960 960" width="40"><path d="m764.564-296.871-24.82-24.821q12.436-26.384 19.423-56.449 6.987-30.064 6.987-62.013 0-119.026-83.564-202.59-83.564-83.564-202.59-83.564-29.334 0-61.436 6.615-32.103 6.616-57.103 19.719l-24.974-24.975q32.205-18 69.5-26.603 37.295-8.602 73.895-8.602 59.298 0 113.746 21.026 54.449 21.025 99.552 60.615l41.897-42.41 24.103 24.102-42.411 42.411q41.385 45.564 62.308 100.807Q800-498.359 800-440.154q0 36.564-8.782 73.885-8.782 37.321-26.654 69.398ZM496.923-564.512v-61.078h-33.846v27.231l33.846 33.847ZM803.18-105.23 699.795-208.102q-42.103 41.359-99.398 64.654Q543.103-120.154 480-120.154q-66.308 0-124.5-25.295-58.192-25.294-101.808-68.653-43.615-43.359-68.654-101.808Q160-374.359 160-440.1q0-61.746 21.961-117.81 21.962-56.064 65.987-102.552L105.384-803.026l24.257-24.256 697.795 697.795-24.256 24.257ZM480-154q54.308 0 105.18-20.513 50.871-20.512 91.615-58.153L272.872-637.103q-38.154 39.564-58.59 90.282-20.436 50.718-20.436 106.667 0 119.026 83.564 202.59Q360.974-154 480-154ZM375.385-866.154V-900h209.23v33.846h-209.23ZM474.692-435Zm76.077-76Z"/></svg>